<svg xmlns="http://www.w3.org/2000/svg" xmlns:xlink="http://www.w3.org/1999/xlink" width="30.237" height="31.535" viewBox="0 0 30.237 31.535">
  <defs>
    <clipPath id="clip-path">
      <rect width="30.237" height="31.535" fill="none"/>
    </clipPath>
    <linearGradient id="linear-gradient" x1="0.188" y1="0.881" x2="0.805" y2="0.127" gradientUnits="objectBoundingBox">
      <stop offset="0" stop-color="#f2f2f2"/>
      <stop offset="1" stop-color="#eff6fa"/>
    </linearGradient>
  </defs>
  <g id="반복_그리드_1" data-name="반복 그리드 1" clip-path="url(#clip-path)">
    <g id="그룹_12982" data-name="그룹 12982" transform="translate(-666.508 -1976.473)">
      <g id="그룹_12968" data-name="그룹 12968">
        <g id="그룹_12967" data-name="그룹 12967">
          <g id="그룹_12965" data-name="그룹 12965" style="mix-blend-mode: multiply;isolation: isolate">
            <ellipse id="타원_6639" data-name="타원 6639" cx="14.731" cy="14.993" rx="14.731" ry="14.993" transform="translate(666.508 1978.023)" fill="#fff" opacity="0"/>
            <ellipse id="타원_6640" data-name="타원 6640" cx="14.663" cy="14.912" rx="14.663" ry="14.912" transform="translate(666.656 1977.974)" fill="#fdfdfd" opacity="0.048"/>
            <ellipse id="타원_6641" data-name="타원 6641" cx="14.595" cy="14.832" rx="14.595" ry="14.832" transform="translate(666.804 1977.925)" fill="#fbfbfb" opacity="0.095"/>
            <ellipse id="타원_6642" data-name="타원 6642" cx="14.527" cy="14.752" rx="14.527" ry="14.752" transform="translate(666.952 1977.876)" fill="#f8f8f8" opacity="0.143"/>
            <ellipse id="타원_6643" data-name="타원 6643" cx="14.459" cy="14.671" rx="14.459" ry="14.671" transform="translate(667.1 1977.827)" fill="#f6f6f6" opacity="0.19"/>
            <ellipse id="타원_6644" data-name="타원 6644" cx="14.391" cy="14.591" rx="14.391" ry="14.591" transform="translate(667.247 1977.778)" fill="#f4f4f4" opacity="0.238"/>
            <ellipse id="타원_6645" data-name="타원 6645" cx="14.323" cy="14.511" rx="14.323" ry="14.511" transform="translate(667.395 1977.729)" fill="#f2f2f2" opacity="0.286"/>
            <ellipse id="타원_6646" data-name="타원 6646" cx="14.256" cy="14.43" rx="14.256" ry="14.43" transform="translate(667.543 1977.68)" fill="#f0f0f0" opacity="0.333"/>
            <ellipse id="타원_6647" data-name="타원 6647" cx="14.188" cy="14.35" rx="14.188" ry="14.35" transform="translate(667.691 1977.631)" fill="#ededed" opacity="0.381"/>
            <ellipse id="타원_6648" data-name="타원 6648" cx="14.12" cy="14.269" rx="14.12" ry="14.269" transform="translate(667.839 1977.582)" fill="#ebebeb" opacity="0.429"/>
            <path id="패스_31531" data-name="패스 31531" d="M696.091,1991.722a14.053,14.053,0,1,1-14.052-14.189A14.122,14.122,0,0,1,696.091,1991.722Z" fill="#e9e9e9" opacity="0.476"/>
            <path id="패스_31532" data-name="패스 31532" d="M696.1,1991.593a13.985,13.985,0,1,1-13.984-14.109A14.046,14.046,0,0,1,696.1,1991.593Z" fill="#e7e7e7" opacity="0.524"/>
            <path id="패스_31533" data-name="패스 31533" d="M696.115,1991.463a13.916,13.916,0,1,1-13.916-14.028A13.973,13.973,0,0,1,696.115,1991.463Z" fill="#e5e5e5" opacity="0.571"/>
            <path id="패스_31534" data-name="패스 31534" d="M696.127,1991.334a13.849,13.849,0,1,1-13.848-13.948A13.9,13.9,0,0,1,696.127,1991.334Z" fill="#e3e3e3" opacity="0.619"/>
            <path id="패스_31535" data-name="패스 31535" d="M696.139,1991.2a13.781,13.781,0,1,1-13.781-13.868A13.825,13.825,0,0,1,696.139,1991.2Z" fill="#e0e0e0" opacity="0.667"/>
            <path id="패스_31536" data-name="패스 31536" d="M696.151,1991.075a13.713,13.713,0,1,1-13.713-13.787A13.75,13.75,0,0,1,696.151,1991.075Z" fill="#dedede" opacity="0.714"/>
            <path id="패스_31537" data-name="패스 31537" d="M696.163,1990.946a13.645,13.645,0,1,1-13.645-13.707A13.676,13.676,0,0,1,696.163,1990.946Z" fill="#dcdcdc" opacity="0.762"/>
            <path id="패스_31538" data-name="패스 31538" d="M696.175,1990.816A13.577,13.577,0,1,1,682.6,1977.19,13.6,13.6,0,0,1,696.175,1990.816Z" fill="#dadada" opacity="0.81"/>
            <path id="패스_31539" data-name="패스 31539" d="M696.187,1990.687a13.509,13.509,0,1,1-13.509-13.546A13.527,13.527,0,0,1,696.187,1990.687Z" fill="#d8d8d8" opacity="0.857"/>
            <path id="패스_31540" data-name="패스 31540" d="M696.2,1990.558a13.441,13.441,0,1,1-13.441-13.466A13.453,13.453,0,0,1,696.2,1990.558Z" fill="#d5d5d5" opacity="0.905"/>
            <path id="패스_31541" data-name="패스 31541" d="M696.211,1990.428a13.373,13.373,0,1,1-13.373-13.385A13.379,13.379,0,0,1,696.211,1990.428Z" fill="#d3d3d3" opacity="0.952"/>
            <path id="패스_31542" data-name="패스 31542" d="M696.224,1990.3a13.306,13.306,0,1,1-13.306-13.3A13.305,13.305,0,0,1,696.224,1990.3Z" fill="#d1d1d1"/>
          </g>
          <g id="그룹_12966" data-name="그룹 12966" style="mix-blend-mode: multiply;isolation: isolate">
            <path id="패스_31543" data-name="패스 31543" d="M695.97,1991.589a13.566,13.566,0,1,1-13.566-13.566A13.566,13.566,0,0,1,695.97,1991.589Z" fill="#fff" opacity="0"/>
            <path id="패스_31544" data-name="패스 31544" d="M695.97,1991.536a13.55,13.55,0,1,1-13.55-13.55A13.551,13.551,0,0,1,695.97,1991.536Z" fill="#fdfdfd" opacity="0.048"/>
            <path id="패스_31545" data-name="패스 31545" d="M695.969,1991.484a13.534,13.534,0,1,1-13.533-13.534A13.533,13.533,0,0,1,695.969,1991.484Z" fill="#fbfbfb" opacity="0.095"/>
            <path id="패스_31546" data-name="패스 31546" d="M695.969,1991.431a13.517,13.517,0,1,1-13.518-13.518A13.518,13.518,0,0,1,695.969,1991.431Z" fill="#f8f8f8" opacity="0.143"/>
            <path id="패스_31547" data-name="패스 31547" d="M695.969,1991.378a13.5,13.5,0,1,1-13.5-13.5A13.5,13.5,0,0,1,695.969,1991.378Z" fill="#f6f6f6" opacity="0.19"/>
            <path id="패스_31548" data-name="패스 31548" d="M695.968,1991.325a13.485,13.485,0,1,1-13.485-13.485A13.485,13.485,0,0,1,695.968,1991.325Z" fill="#f4f4f4" opacity="0.238"/>
            <path id="패스_31549" data-name="패스 31549" d="M695.968,1991.273A13.469,13.469,0,1,1,682.5,1977.8,13.47,13.47,0,0,1,695.968,1991.273Z" fill="#f2f2f2" opacity="0.286"/>
            <path id="패스_31550" data-name="패스 31550" d="M695.968,1991.22a13.453,13.453,0,1,1-13.454-13.453A13.454,13.454,0,0,1,695.968,1991.22Z" fill="#f0f0f0" opacity="0.333"/>
            <path id="패스_31551" data-name="패스 31551" d="M695.967,1991.167a13.437,13.437,0,1,1-13.437-13.437A13.437,13.437,0,0,1,695.967,1991.167Z" fill="#ededed" opacity="0.381"/>
            <path id="패스_31552" data-name="패스 31552" d="M695.967,1991.115a13.421,13.421,0,1,1-13.421-13.421A13.42,13.42,0,0,1,695.967,1991.115Z" fill="#ebebeb" opacity="0.429"/>
            <path id="패스_31553" data-name="패스 31553" d="M695.967,1991.062a13.4,13.4,0,1,1-13.4-13.405A13.4,13.4,0,0,1,695.967,1991.062Z" fill="#e9e9e9" opacity="0.476"/>
            <path id="패스_31554" data-name="패스 31554" d="M695.966,1991.009a13.388,13.388,0,1,1-13.388-13.388A13.388,13.388,0,0,1,695.966,1991.009Z" fill="#e7e7e7" opacity="0.524"/>
            <path id="패스_31555" data-name="패스 31555" d="M695.966,1990.956a13.372,13.372,0,1,1-13.373-13.372A13.373,13.373,0,0,1,695.966,1990.956Z" fill="#e5e5e5" opacity="0.571"/>
            <path id="패스_31556" data-name="패스 31556" d="M695.966,1990.9a13.357,13.357,0,1,1-13.357-13.357A13.357,13.357,0,0,1,695.966,1990.9Z" fill="#e3e3e3" opacity="0.619"/>
            <path id="패스_31557" data-name="패스 31557" d="M695.965,1990.851a13.34,13.34,0,1,1-13.34-13.34A13.339,13.339,0,0,1,695.965,1990.851Z" fill="#e0e0e0" opacity="0.667"/>
            <path id="패스_31558" data-name="패스 31558" d="M695.965,1990.8a13.324,13.324,0,1,1-13.324-13.324A13.324,13.324,0,0,1,695.965,1990.8Z" fill="#dedede" opacity="0.714"/>
            <path id="패스_31559" data-name="패스 31559" d="M695.965,1990.746a13.308,13.308,0,1,1-13.308-13.308A13.308,13.308,0,0,1,695.965,1990.746Z" fill="#dcdcdc" opacity="0.762"/>
            <path id="패스_31560" data-name="패스 31560" d="M695.964,1990.693a13.292,13.292,0,1,1-13.292-13.292A13.292,13.292,0,0,1,695.964,1990.693Z" fill="#dadada" opacity="0.81"/>
            <path id="패스_31561" data-name="패스 31561" d="M695.964,1990.64a13.275,13.275,0,1,1-13.276-13.276A13.276,13.276,0,0,1,695.964,1990.64Z" fill="#d8d8d8" opacity="0.857"/>
            <path id="패스_31562" data-name="패스 31562" d="M695.964,1990.588a13.26,13.26,0,1,1-13.26-13.26A13.26,13.26,0,0,1,695.964,1990.588Z" fill="#d5d5d5" opacity="0.905"/>
            <path id="패스_31563" data-name="패스 31563" d="M695.963,1990.535a13.243,13.243,0,1,1-13.243-13.244A13.243,13.243,0,0,1,695.963,1990.535Z" fill="#d3d3d3" opacity="0.952"/>
            <path id="패스_31564" data-name="패스 31564" d="M695.963,1990.482a13.228,13.228,0,1,1-13.228-13.227A13.227,13.227,0,0,1,695.963,1990.482Z" fill="#d1d1d1"/>
          </g>
        </g>
        <path id="패스_31565" data-name="패스 31565" d="M696.745,1990.038a13.566,13.566,0,1,1-13.566-13.565A13.566,13.566,0,0,1,696.745,1990.038Z" fill="url(#linear-gradient)"/>
      </g>
      <g id="그룹_12981" data-name="그룹 12981">
        <path id="패스_31566" data-name="패스 31566" d="M692.439,1990.038a9.26,9.26,0,1,1-9.26-9.26A9.26,9.26,0,0,1,692.439,1990.038Z" fill="none"/>
        <g id="그룹_12971" data-name="그룹 12971">
          <g id="그룹_12969" data-name="그룹 12969">
            <path id="패스_31567" data-name="패스 31567" d="M689.944,1990.327H681.5a.289.289,0,1,1,0-.577h8.446a.289.289,0,1,1,0,.577Z" fill="#383838"/>
          </g>
          <g id="그룹_12970" data-name="그룹 12970">
            <path id="패스_31568" data-name="패스 31568" d="M678.761,1990.327h-2.555a.289.289,0,0,1,0-.577h2.555a.289.289,0,1,1,0,.577Z" fill="#383838"/>
          </g>
        </g>
        <g id="그룹_12974" data-name="그룹 12974">
          <g id="그룹_12972" data-name="그룹 12972">
            <path id="패스_31569" data-name="패스 31569" d="M689.944,1985.467H687.39a.289.289,0,1,1,0-.578h2.554a.289.289,0,1,1,0,.578Z" fill="#383838"/>
          </g>
          <g id="그룹_12973" data-name="그룹 12973">
            <path id="패스_31570" data-name="패스 31570" d="M684.653,1985.467h-8.447a.289.289,0,0,1,0-.578h8.447a.289.289,0,0,1,0,.578Z" fill="#383838"/>
          </g>
        </g>
        <g id="그룹_12977" data-name="그룹 12977">
          <g id="그룹_12975" data-name="그룹 12975">
            <path id="패스_31571" data-name="패스 31571" d="M689.944,1995.188H687.39a.289.289,0,1,1,0-.578h2.554a.289.289,0,1,1,0,.578Z" fill="#383838"/>
          </g>
          <g id="그룹_12976" data-name="그룹 12976">
            <path id="패스_31572" data-name="패스 31572" d="M684.653,1995.188h-8.447a.289.289,0,0,1,0-.578h8.447a.289.289,0,0,1,0,.578Z" fill="#383838"/>
          </g>
        </g>
        <g id="그룹_12978" data-name="그룹 12978">
          <path id="패스_31573" data-name="패스 31573" d="M686.021,1986.835a1.657,1.657,0,1,1,1.657-1.657A1.658,1.658,0,0,1,686.021,1986.835Zm0-2.737a1.08,1.08,0,1,0,1.08,1.08A1.081,1.081,0,0,0,686.021,1984.1Z" fill="#383838"/>
        </g>
        <g id="그룹_12979" data-name="그룹 12979">
          <path id="패스_31574" data-name="패스 31574" d="M686.021,1996.556a1.657,1.657,0,1,1,1.657-1.657A1.658,1.658,0,0,1,686.021,1996.556Zm0-2.737a1.08,1.08,0,1,0,1.08,1.08A1.082,1.082,0,0,0,686.021,1993.819Z" fill="#383838"/>
        </g>
        <g id="그룹_12980" data-name="그룹 12980">
          <path id="패스_31575" data-name="패스 31575" d="M680.129,1991.7a1.658,1.658,0,1,1,1.658-1.657A1.66,1.66,0,0,1,680.129,1991.7Zm0-2.737a1.08,1.08,0,1,0,1.08,1.08A1.08,1.08,0,0,0,680.129,1988.959Z" fill="#383838"/>
        </g>
      </g>
    </g>
  </g>
</svg>
