<svg xmlns="http://www.w3.org/2000/svg" xmlns:xlink="http://www.w3.org/1999/xlink" width="30.237" height="31.536" viewBox="0 0 30.237 31.536">
  <defs>
    <clipPath id="clip-path">
      <rect width="30.237" height="31.536" fill="none"/>
    </clipPath>
    <linearGradient id="linear-gradient" x1="0.188" y1="0.881" x2="0.805" y2="0.127" gradientUnits="objectBoundingBox">
      <stop offset="0" stop-color="#f2f2f2"/>
      <stop offset="1" stop-color="#eff6fa"/>
    </linearGradient>
  </defs>
  <g id="반복_그리드_2" data-name="반복 그리드 2" clip-path="url(#clip-path)">
    <g id="그룹_13001" data-name="그룹 13001" transform="translate(-844.438 -1976.06)">
      <g id="그룹_12986" data-name="그룹 12986">
        <g id="그룹_12985" data-name="그룹 12985">
          <g id="그룹_12983" data-name="그룹 12983" style="mix-blend-mode: multiply;isolation: isolate">
            <ellipse id="타원_6649" data-name="타원 6649" cx="14.731" cy="14.993" rx="14.731" ry="14.993" transform="translate(844.438 1977.61)" fill="#fff" opacity="0"/>
            <ellipse id="타원_6650" data-name="타원 6650" cx="14.663" cy="14.912" rx="14.663" ry="14.912" transform="translate(844.586 1977.561)" fill="#fdfdfd" opacity="0.048"/>
            <ellipse id="타원_6651" data-name="타원 6651" cx="14.595" cy="14.832" rx="14.595" ry="14.832" transform="translate(844.734 1977.512)" fill="#fbfbfb" opacity="0.095"/>
            <ellipse id="타원_6652" data-name="타원 6652" cx="14.527" cy="14.752" rx="14.527" ry="14.752" transform="translate(844.882 1977.463)" fill="#f8f8f8" opacity="0.143"/>
            <ellipse id="타원_6653" data-name="타원 6653" cx="14.459" cy="14.671" rx="14.459" ry="14.671" transform="translate(845.03 1977.414)" fill="#f6f6f6" opacity="0.19"/>
            <ellipse id="타원_6654" data-name="타원 6654" cx="14.391" cy="14.591" rx="14.391" ry="14.591" transform="translate(845.177 1977.365)" fill="#f4f4f4" opacity="0.238"/>
            <ellipse id="타원_6655" data-name="타원 6655" cx="14.323" cy="14.511" rx="14.323" ry="14.511" transform="translate(845.325 1977.316)" fill="#f2f2f2" opacity="0.286"/>
            <ellipse id="타원_6656" data-name="타원 6656" cx="14.256" cy="14.43" rx="14.256" ry="14.43" transform="translate(845.473 1977.267)" fill="#f0f0f0" opacity="0.333"/>
            <ellipse id="타원_6657" data-name="타원 6657" cx="14.188" cy="14.35" rx="14.188" ry="14.35" transform="translate(845.621 1977.218)" fill="#ededed" opacity="0.381"/>
            <ellipse id="타원_6658" data-name="타원 6658" cx="14.12" cy="14.269" rx="14.12" ry="14.269" transform="translate(845.769 1977.169)" fill="#ebebeb" opacity="0.429"/>
            <path id="패스_31576" data-name="패스 31576" d="M874.021,1991.309a14.053,14.053,0,1,1-14.052-14.189A14.121,14.121,0,0,1,874.021,1991.309Z" fill="#e9e9e9" opacity="0.476"/>
            <path id="패스_31577" data-name="패스 31577" d="M874.033,1991.18a13.985,13.985,0,1,1-13.984-14.109A14.047,14.047,0,0,1,874.033,1991.18Z" fill="#e7e7e7" opacity="0.524"/>
            <path id="패스_31578" data-name="패스 31578" d="M874.045,1991.051a13.916,13.916,0,1,1-13.916-14.029A13.973,13.973,0,0,1,874.045,1991.051Z" fill="#e5e5e5" opacity="0.571"/>
            <path id="패스_31579" data-name="패스 31579" d="M874.057,1990.921a13.849,13.849,0,1,1-13.848-13.948A13.9,13.9,0,0,1,874.057,1990.921Z" fill="#e3e3e3" opacity="0.619"/>
            <path id="패스_31580" data-name="패스 31580" d="M874.069,1990.792a13.781,13.781,0,1,1-13.78-13.868A13.825,13.825,0,0,1,874.069,1990.792Z" fill="#e0e0e0" opacity="0.667"/>
            <path id="패스_31581" data-name="패스 31581" d="M874.081,1990.662a13.713,13.713,0,1,1-13.712-13.787A13.75,13.75,0,0,1,874.081,1990.662Z" fill="#dedede" opacity="0.714"/>
            <path id="패스_31582" data-name="패스 31582" d="M874.093,1990.533a13.645,13.645,0,1,1-13.645-13.707A13.676,13.676,0,0,1,874.093,1990.533Z" fill="#dcdcdc" opacity="0.762"/>
            <path id="패스_31583" data-name="패스 31583" d="M874.1,1990.4a13.577,13.577,0,1,1-13.577-13.627A13.6,13.6,0,0,1,874.1,1990.4Z" fill="#dadada" opacity="0.81"/>
            <path id="패스_31584" data-name="패스 31584" d="M874.117,1990.274a13.509,13.509,0,1,1-13.509-13.546A13.528,13.528,0,0,1,874.117,1990.274Z" fill="#d8d8d8" opacity="0.857"/>
            <path id="패스_31585" data-name="패스 31585" d="M874.13,1990.145a13.441,13.441,0,1,1-13.442-13.466A13.454,13.454,0,0,1,874.13,1990.145Z" fill="#d5d5d5" opacity="0.905"/>
            <path id="패스_31586" data-name="패스 31586" d="M874.142,1990.016a13.373,13.373,0,1,1-13.374-13.386A13.38,13.38,0,0,1,874.142,1990.016Z" fill="#d3d3d3" opacity="0.952"/>
            <path id="패스_31587" data-name="패스 31587" d="M874.154,1989.886a13.305,13.305,0,1,1-13.306-13.3A13.306,13.306,0,0,1,874.154,1989.886Z" fill="#d1d1d1"/>
          </g>
          <g id="그룹_12984" data-name="그룹 12984" style="mix-blend-mode: multiply;isolation: isolate">
            <path id="패스_31588" data-name="패스 31588" d="M873.9,1991.176a13.566,13.566,0,1,1-13.566-13.566A13.566,13.566,0,0,1,873.9,1991.176Z" fill="#fff" opacity="0"/>
            <path id="패스_31589" data-name="패스 31589" d="M873.9,1991.124a13.55,13.55,0,1,1-13.55-13.55A13.55,13.55,0,0,1,873.9,1991.124Z" fill="#fdfdfd" opacity="0.048"/>
            <path id="패스_31590" data-name="패스 31590" d="M873.9,1991.071a13.534,13.534,0,1,1-13.533-13.534A13.533,13.533,0,0,1,873.9,1991.071Z" fill="#fbfbfb" opacity="0.095"/>
            <path id="패스_31591" data-name="패스 31591" d="M873.9,1991.018a13.517,13.517,0,1,1-13.518-13.517A13.517,13.517,0,0,1,873.9,1991.018Z" fill="#f8f8f8" opacity="0.143"/>
            <path id="패스_31592" data-name="패스 31592" d="M873.9,1990.965a13.5,13.5,0,1,1-13.5-13.5A13.5,13.5,0,0,1,873.9,1990.965Z" fill="#f6f6f6" opacity="0.19"/>
            <path id="패스_31593" data-name="패스 31593" d="M873.9,1990.913a13.485,13.485,0,1,1-13.485-13.486A13.485,13.485,0,0,1,873.9,1990.913Z" fill="#f4f4f4" opacity="0.238"/>
            <path id="패스_31594" data-name="패스 31594" d="M873.9,1990.86a13.469,13.469,0,1,1-13.469-13.469A13.469,13.469,0,0,1,873.9,1990.86Z" fill="#f2f2f2" opacity="0.286"/>
            <path id="패스_31595" data-name="패스 31595" d="M873.9,1990.807a13.453,13.453,0,1,1-13.453-13.453A13.453,13.453,0,0,1,873.9,1990.807Z" fill="#f0f0f0" opacity="0.333"/>
            <path id="패스_31596" data-name="패스 31596" d="M873.9,1990.755a13.436,13.436,0,1,1-13.437-13.437A13.437,13.437,0,0,1,873.9,1990.755Z" fill="#ededed" opacity="0.381"/>
            <path id="패스_31597" data-name="패스 31597" d="M873.9,1990.7a13.421,13.421,0,1,1-13.421-13.421A13.42,13.42,0,0,1,873.9,1990.7Z" fill="#ebebeb" opacity="0.429"/>
            <path id="패스_31598" data-name="패스 31598" d="M873.9,1990.649a13.4,13.4,0,1,1-13.4-13.405A13.405,13.405,0,0,1,873.9,1990.649Z" fill="#e9e9e9" opacity="0.476"/>
            <path id="패스_31599" data-name="패스 31599" d="M873.9,1990.6a13.388,13.388,0,1,1-13.388-13.389A13.388,13.388,0,0,1,873.9,1990.6Z" fill="#e7e7e7" opacity="0.524"/>
            <path id="패스_31600" data-name="패스 31600" d="M873.9,1990.544a13.372,13.372,0,1,1-13.373-13.373A13.372,13.372,0,0,1,873.9,1990.544Z" fill="#e5e5e5" opacity="0.571"/>
            <path id="패스_31601" data-name="패스 31601" d="M873.9,1990.491a13.357,13.357,0,1,1-13.357-13.356A13.357,13.357,0,0,1,873.9,1990.491Z" fill="#e3e3e3" opacity="0.619"/>
            <path id="패스_31602" data-name="패스 31602" d="M873.9,1990.438a13.34,13.34,0,1,1-13.34-13.34A13.339,13.339,0,0,1,873.9,1990.438Z" fill="#e0e0e0" opacity="0.667"/>
            <path id="패스_31603" data-name="패스 31603" d="M873.9,1990.386a13.324,13.324,0,1,1-13.324-13.324A13.323,13.323,0,0,1,873.9,1990.386Z" fill="#dedede" opacity="0.714"/>
            <path id="패스_31604" data-name="패스 31604" d="M873.9,1990.333a13.308,13.308,0,1,1-13.308-13.308A13.308,13.308,0,0,1,873.9,1990.333Z" fill="#dcdcdc" opacity="0.762"/>
            <path id="패스_31605" data-name="패스 31605" d="M873.894,1990.28a13.292,13.292,0,1,1-13.292-13.292A13.292,13.292,0,0,1,873.894,1990.28Z" fill="#dadada" opacity="0.81"/>
            <path id="패스_31606" data-name="패스 31606" d="M873.894,1990.228a13.275,13.275,0,1,1-13.276-13.276A13.276,13.276,0,0,1,873.894,1990.228Z" fill="#d8d8d8" opacity="0.857"/>
            <path id="패스_31607" data-name="패스 31607" d="M873.894,1990.175a13.259,13.259,0,1,1-13.26-13.26A13.259,13.259,0,0,1,873.894,1990.175Z" fill="#d5d5d5" opacity="0.905"/>
            <path id="패스_31608" data-name="패스 31608" d="M873.893,1990.122a13.243,13.243,0,1,1-13.243-13.243A13.243,13.243,0,0,1,873.893,1990.122Z" fill="#d3d3d3" opacity="0.952"/>
            <path id="패스_31609" data-name="패스 31609" d="M873.893,1990.069a13.228,13.228,0,1,1-13.227-13.227A13.227,13.227,0,0,1,873.893,1990.069Z" fill="#d1d1d1"/>
          </g>
        </g>
        <path id="패스_31610" data-name="패스 31610" d="M874.675,1989.626a13.566,13.566,0,1,1-13.566-13.566A13.566,13.566,0,0,1,874.675,1989.626Z" fill="url(#linear-gradient)"/>
      </g>
      <g id="그룹_13000" data-name="그룹 13000">
        <g id="그룹_12992" data-name="그룹 12992">
          <g id="그룹_12987" data-name="그룹 12987">
            <path id="패스_31611" data-name="패스 31611" d="M865.511,1991.187H853.922v-7.25h1.748l-1.33-1.421.527-.494,2.467,2.637h-2.691v5.806h10.144v-5.806h-6.464v-.722h7.186Z"/>
          </g>
          <g id="그룹_12991" data-name="그룹 12991">
            <g id="그룹_12988" data-name="그룹 12988">
              <rect id="사각형_3581" data-name="사각형 3581" width="0.887" height="0.722" transform="translate(859.273 1987.239)"/>
            </g>
            <g id="그룹_12989" data-name="그룹 12989">
              <rect id="사각형_3582" data-name="사각형 3582" width="0.887" height="0.722" transform="translate(857.132 1987.239)"/>
            </g>
            <g id="그룹_12990" data-name="그룹 12990">
              <rect id="사각형_3583" data-name="사각형 3583" width="0.887" height="0.722" transform="translate(861.415 1987.239)"/>
            </g>
          </g>
        </g>
        <g id="그룹_12999" data-name="그룹 12999">
          <g id="그룹_12993" data-name="그룹 12993">
            <path id="패스_31612" data-name="패스 31612" d="M867.091,1997.833l-2.467-2.637h2.691v-5.806h-.854v-.722h1.577v7.25h-1.748l1.33,1.421Z"/>
          </g>
          <g id="그룹_12994" data-name="그룹 12994">
            <path id="패스_31613" data-name="패스 31613" d="M863.635,1995.918h-7.187v-3.847h.722v3.125h6.464Z"/>
          </g>
          <g id="그룹_12998" data-name="그룹 12998">
            <g id="그룹_12995" data-name="그룹 12995">
              <rect id="사각형_3584" data-name="사각형 3584" width="0.887" height="0.722" transform="translate(861.799 1992.182)"/>
            </g>
            <g id="그룹_12996" data-name="그룹 12996">
              <rect id="사각형_3585" data-name="사각형 3585" width="0.887" height="0.722" transform="translate(863.94 1992.182)"/>
            </g>
            <g id="그룹_12997" data-name="그룹 12997">
              <rect id="사각형_3586" data-name="사각형 3586" width="0.887" height="0.722" transform="translate(859.657 1992.182)"/>
            </g>
          </g>
        </g>
      </g>
    </g>
  </g>
</svg>
