<svg xmlns="http://www.w3.org/2000/svg" xmlns:xlink="http://www.w3.org/1999/xlink" width="30.237" height="31.536" viewBox="0 0 30.237 31.536">
  <defs>
    <clipPath id="clip-path">
      <rect width="30.237" height="31.536" fill="none"/>
    </clipPath>
    <linearGradient id="linear-gradient" x1="0.188" y1="0.881" x2="0.805" y2="0.127" gradientUnits="objectBoundingBox">
      <stop offset="0" stop-color="#f2f2f2"/>
      <stop offset="1" stop-color="#eff6fa"/>
    </linearGradient>
  </defs>
  <g id="반복_그리드_2" data-name="반복 그리드 2" clip-path="url(#clip-path)">
    <g transform="translate(-382.474 -2099.708)">
      <g id="그룹_12945" data-name="그룹 12945" transform="translate(7 123.211)">
        <g id="그룹_12940" data-name="그룹 12940">
          <path id="패스_31453" data-name="패스 31453" d="M397.116,1988.88a.416.416,0,0,0-.434.457v6.326h-3.125V1993.1a.443.443,0,0,0-.387-.457h-2.254a.488.488,0,0,0-.479.457v2.564h-3.079v-6.1a.439.439,0,0,0-.434-.457.416.416,0,0,0-.434.457v6.614a.448.448,0,0,0,.434.457h3.992a.443.443,0,0,0,.388-.457v-2.621h1.39v2.621a.486.486,0,0,0,.476.457h3.946a.482.482,0,0,0,.434-.457v-6.84a.441.441,0,0,0-.434-.457Zm-10.188-6.675h0a.478.478,0,0,1,.4.525v3.482l4.369-4.629a.421.421,0,0,1,.345-.169.339.339,0,0,1,.261.169c2.557,2.679,4.334,4.56,7.2,7.639h0a.517.517,0,0,1,0,.683.511.511,0,0,1-.3.115.418.418,0,0,1-.3-.115l-6.852-7.351-6.894,7.236a.353.353,0,0,1-.607,0,.328.328,0,0,1-.13-.284.563.563,0,0,1,.13-.342l1.985-2.1v-4.331a.478.478,0,0,1,.4-.525Z" fill="#3f3f41" fill-rule="evenodd"/>
        </g>
        <g id="그룹_12944" data-name="그룹 12944">
          <g id="그룹_12943" data-name="그룹 12943">
            <g id="그룹_12941" data-name="그룹 12941" style="mix-blend-mode: multiply;isolation: isolate">
              <ellipse id="타원_6619" data-name="타원 6619" cx="14.731" cy="14.993" rx="14.731" ry="14.993" transform="translate(375.474 1978.047)" fill="#fff" opacity="0"/>
              <ellipse id="타원_6620" data-name="타원 6620" cx="14.663" cy="14.912" rx="14.663" ry="14.912" transform="translate(375.622 1977.998)" fill="#fdfdfd" opacity="0.048"/>
              <ellipse id="타원_6621" data-name="타원 6621" cx="14.595" cy="14.832" rx="14.595" ry="14.832" transform="translate(375.77 1977.949)" fill="#fbfbfb" opacity="0.095"/>
              <ellipse id="타원_6622" data-name="타원 6622" cx="14.527" cy="14.752" rx="14.527" ry="14.752" transform="translate(375.918 1977.9)" fill="#f8f8f8" opacity="0.143"/>
              <ellipse id="타원_6623" data-name="타원 6623" cx="14.459" cy="14.671" rx="14.459" ry="14.671" transform="translate(376.066 1977.851)" fill="#f6f6f6" opacity="0.19"/>
              <ellipse id="타원_6624" data-name="타원 6624" cx="14.391" cy="14.591" rx="14.391" ry="14.591" transform="translate(376.214 1977.802)" fill="#f4f4f4" opacity="0.238"/>
              <ellipse id="타원_6625" data-name="타원 6625" cx="14.323" cy="14.511" rx="14.323" ry="14.511" transform="translate(376.361 1977.753)" fill="#f2f2f2" opacity="0.286"/>
              <ellipse id="타원_6626" data-name="타원 6626" cx="14.256" cy="14.43" rx="14.256" ry="14.43" transform="translate(376.509 1977.704)" fill="#f0f0f0" opacity="0.333"/>
              <ellipse id="타원_6627" data-name="타원 6627" cx="14.188" cy="14.35" rx="14.188" ry="14.35" transform="translate(376.657 1977.655)" fill="#ededed" opacity="0.381"/>
              <ellipse id="타원_6628" data-name="타원 6628" cx="14.12" cy="14.269" rx="14.12" ry="14.269" transform="translate(376.805 1977.606)" fill="#ebebeb" opacity="0.429"/>
              <path id="패스_31454" data-name="패스 31454" d="M405.057,1991.746a14.053,14.053,0,1,1-14.052-14.189A14.121,14.121,0,0,1,405.057,1991.746Z" fill="#e9e9e9" opacity="0.476"/>
              <path id="패스_31455" data-name="패스 31455" d="M405.069,1991.617a13.985,13.985,0,1,1-13.984-14.109A14.047,14.047,0,0,1,405.069,1991.617Z" fill="#e7e7e7" opacity="0.524"/>
              <path id="패스_31456" data-name="패스 31456" d="M405.081,1991.487a13.916,13.916,0,1,1-13.916-14.028A13.973,13.973,0,0,1,405.081,1991.487Z" fill="#e5e5e5" opacity="0.571"/>
              <path id="패스_31457" data-name="패스 31457" d="M405.093,1991.358a13.848,13.848,0,1,1-13.848-13.948A13.9,13.9,0,0,1,405.093,1991.358Z" fill="#e3e3e3" opacity="0.619"/>
              <path id="패스_31458" data-name="패스 31458" d="M405.105,1991.229a13.781,13.781,0,1,1-13.78-13.868A13.824,13.824,0,0,1,405.105,1991.229Z" fill="#e0e0e0" opacity="0.667"/>
              <path id="패스_31459" data-name="패스 31459" d="M405.117,1991.1a13.713,13.713,0,1,1-13.712-13.787A13.75,13.75,0,0,1,405.117,1991.1Z" fill="#dedede" opacity="0.714"/>
              <path id="패스_31460" data-name="패스 31460" d="M405.129,1990.97a13.645,13.645,0,1,1-13.644-13.707A13.676,13.676,0,0,1,405.129,1990.97Z" fill="#dcdcdc" opacity="0.762"/>
              <path id="패스_31461" data-name="패스 31461" d="M405.141,1990.841a13.577,13.577,0,1,1-13.576-13.627A13.6,13.6,0,0,1,405.141,1990.841Z" fill="#dadada" opacity="0.81"/>
              <path id="패스_31462" data-name="패스 31462" d="M405.153,1990.711a13.509,13.509,0,1,1-13.509-13.546A13.528,13.528,0,0,1,405.153,1990.711Z" fill="#d8d8d8" opacity="0.857"/>
              <path id="패스_31463" data-name="패스 31463" d="M405.166,1990.582a13.441,13.441,0,1,1-13.442-13.466A13.454,13.454,0,0,1,405.166,1990.582Z" fill="#d5d5d5" opacity="0.905"/>
              <path id="패스_31464" data-name="패스 31464" d="M405.178,1990.453a13.373,13.373,0,1,1-13.374-13.386A13.38,13.38,0,0,1,405.178,1990.453Z" fill="#d3d3d3" opacity="0.952"/>
              <path id="패스_31465" data-name="패스 31465" d="M405.19,1990.323a13.305,13.305,0,1,1-13.306-13.305A13.3,13.3,0,0,1,405.19,1990.323Z" fill="#d1d1d1"/>
            </g>
            <g id="그룹_12942" data-name="그룹 12942" style="mix-blend-mode: multiply;isolation: isolate">
              <path id="패스_31466" data-name="패스 31466" d="M404.936,1991.613a13.566,13.566,0,1,1-13.566-13.566A13.566,13.566,0,0,1,404.936,1991.613Z" fill="#fff" opacity="0"/>
              <path id="패스_31467" data-name="패스 31467" d="M404.936,1991.56a13.55,13.55,0,1,1-13.55-13.549A13.55,13.55,0,0,1,404.936,1991.56Z" fill="#fdfdfd" opacity="0.048"/>
              <path id="패스_31468" data-name="패스 31468" d="M404.935,1991.508a13.533,13.533,0,1,1-13.533-13.534A13.533,13.533,0,0,1,404.935,1991.508Z" fill="#fbfbfb" opacity="0.095"/>
              <path id="패스_31469" data-name="패스 31469" d="M404.935,1991.455a13.518,13.518,0,1,1-13.518-13.518A13.518,13.518,0,0,1,404.935,1991.455Z" fill="#f8f8f8" opacity="0.143"/>
              <path id="패스_31470" data-name="패스 31470" d="M404.935,1991.4a13.5,13.5,0,1,1-13.5-13.5A13.5,13.5,0,0,1,404.935,1991.4Z" fill="#f6f6f6" opacity="0.19"/>
              <path id="패스_31471" data-name="패스 31471" d="M404.934,1991.35a13.485,13.485,0,1,1-13.485-13.486A13.485,13.485,0,0,1,404.934,1991.35Z" fill="#f4f4f4" opacity="0.238"/>
              <path id="패스_31472" data-name="패스 31472" d="M404.934,1991.3a13.469,13.469,0,1,1-13.469-13.469A13.469,13.469,0,0,1,404.934,1991.3Z" fill="#f2f2f2" opacity="0.286"/>
              <path id="패스_31473" data-name="패스 31473" d="M404.934,1991.244a13.453,13.453,0,1,1-13.453-13.453A13.454,13.454,0,0,1,404.934,1991.244Z" fill="#f0f0f0" opacity="0.333"/>
              <path id="패스_31474" data-name="패스 31474" d="M404.933,1991.191a13.437,13.437,0,1,1-13.437-13.437A13.437,13.437,0,0,1,404.933,1991.191Z" fill="#ededed" opacity="0.381"/>
              <path id="패스_31475" data-name="패스 31475" d="M404.933,1991.139a13.421,13.421,0,1,1-13.421-13.421A13.42,13.42,0,0,1,404.933,1991.139Z" fill="#ebebeb" opacity="0.429"/>
              <path id="패스_31476" data-name="패스 31476" d="M404.933,1991.086a13.405,13.405,0,1,1-13.4-13.405A13.4,13.4,0,0,1,404.933,1991.086Z" fill="#e9e9e9" opacity="0.476"/>
              <path id="패스_31477" data-name="패스 31477" d="M404.932,1991.033a13.389,13.389,0,1,1-13.388-13.388A13.388,13.388,0,0,1,404.932,1991.033Z" fill="#e7e7e7" opacity="0.524"/>
              <path id="패스_31478" data-name="패스 31478" d="M404.932,1990.981a13.372,13.372,0,1,1-13.372-13.373A13.372,13.372,0,0,1,404.932,1990.981Z" fill="#e5e5e5" opacity="0.571"/>
              <path id="패스_31479" data-name="패스 31479" d="M404.932,1990.928a13.357,13.357,0,1,1-13.357-13.356A13.357,13.357,0,0,1,404.932,1990.928Z" fill="#e3e3e3" opacity="0.619"/>
              <path id="패스_31480" data-name="패스 31480" d="M404.931,1990.875a13.34,13.34,0,1,1-13.34-13.34A13.339,13.339,0,0,1,404.931,1990.875Z" fill="#e0e0e0" opacity="0.667"/>
              <path id="패스_31481" data-name="패스 31481" d="M404.931,1990.823a13.324,13.324,0,1,1-13.324-13.325A13.323,13.323,0,0,1,404.931,1990.823Z" fill="#dedede" opacity="0.714"/>
              <path id="패스_31482" data-name="패스 31482" d="M404.931,1990.77a13.308,13.308,0,1,1-13.308-13.308A13.308,13.308,0,0,1,404.931,1990.77Z" fill="#dcdcdc" opacity="0.762"/>
              <path id="패스_31483" data-name="패스 31483" d="M404.93,1990.717a13.292,13.292,0,1,1-13.292-13.292A13.292,13.292,0,0,1,404.93,1990.717Z" fill="#dadada" opacity="0.81"/>
              <path id="패스_31484" data-name="패스 31484" d="M404.93,1990.664a13.275,13.275,0,1,1-13.276-13.275A13.276,13.276,0,0,1,404.93,1990.664Z" fill="#d8d8d8" opacity="0.857"/>
              <path id="패스_31485" data-name="패스 31485" d="M404.93,1990.612a13.259,13.259,0,1,1-13.26-13.26A13.259,13.259,0,0,1,404.93,1990.612Z" fill="#d5d5d5" opacity="0.905"/>
              <path id="패스_31486" data-name="패스 31486" d="M404.929,1990.559a13.243,13.243,0,1,1-13.243-13.244A13.243,13.243,0,0,1,404.929,1990.559Z" fill="#d3d3d3" opacity="0.952"/>
              <path id="패스_31487" data-name="패스 31487" d="M404.929,1990.506a13.227,13.227,0,1,1-13.227-13.227A13.227,13.227,0,0,1,404.929,1990.506Z" fill="#d1d1d1"/>
            </g>
          </g>
          <path id="패스_31488" data-name="패스 31488" d="M405.711,1990.063a13.566,13.566,0,1,1-13.566-13.566A13.566,13.566,0,0,1,405.711,1990.063Z" fill="url(#linear-gradient)"/>
        </g>
        <path id="패스_31489" data-name="패스 31489" d="M401.4,1990.063a9.26,9.26,0,1,1-9.26-9.261A9.26,9.26,0,0,1,401.4,1990.063Z" fill="none"/>
      </g>
      <g id="그룹_12946" data-name="그룹 12946" transform="translate(7 123.211)">
        <path id="패스_31490" data-name="패스 31490" d="M397.649,1995.772H393.48a.27.27,0,0,1-.27-.27v-3.956a1.283,1.283,0,1,0-2.566,0v3.956a.27.27,0,0,1-.27.27H386.2a.27.27,0,0,1-.27-.27v-8.134a.275.275,0,0,1,.092-.2l5.722-4.99a.269.269,0,0,1,.355,0l5.722,4.99a.272.272,0,0,1,.093.2v8.134A.27.27,0,0,1,397.649,1995.772Zm-3.9-.54h3.629v-7.741l-5.452-4.755-5.452,4.755v7.741H390.1v-3.686a1.823,1.823,0,0,1,3.646,0Z" fill="#383838"/>
      </g>
    </g>
  </g>
</svg>
