<svg xmlns="http://www.w3.org/2000/svg" xmlns:xlink="http://www.w3.org/1999/xlink" width="30.237" height="31.536" viewBox="0 0 30.237 31.536">
  <defs>
    <clipPath id="clip-path">
      <rect width="30.237" height="31.536" fill="none"/>
    </clipPath>
    <linearGradient id="linear-gradient" x1="0.188" y1="0.881" x2="0.805" y2="0.127" gradientUnits="objectBoundingBox">
      <stop offset="0" stop-color="#f2f2f2"/>
      <stop offset="1" stop-color="#eff6fa"/>
    </linearGradient>
  </defs>
  <g id="반복_그리드_3" data-name="반복 그리드 3" clip-path="url(#clip-path)">
    <g transform="translate(-804.807 -2076.879)">
      <g id="그룹_13006" data-name="그룹 13006" transform="translate(-98.942 100.35)">
        <g id="그룹_13005" data-name="그룹 13005">
          <g id="그룹_13004" data-name="그룹 13004">
            <g id="그룹_13002" data-name="그룹 13002" style="mix-blend-mode: multiply;isolation: isolate">
              <ellipse id="타원_6659" data-name="타원 6659" cx="14.731" cy="14.993" rx="14.731" ry="14.993" transform="translate(903.748 1978.079)" fill="#fff" opacity="0"/>
              <ellipse id="타원_6660" data-name="타원 6660" cx="14.663" cy="14.912" rx="14.663" ry="14.912" transform="translate(903.896 1978.03)" fill="#fdfdfd" opacity="0.048"/>
              <ellipse id="타원_6661" data-name="타원 6661" cx="14.595" cy="14.832" rx="14.595" ry="14.832" transform="translate(904.044 1977.981)" fill="#fbfbfb" opacity="0.095"/>
              <ellipse id="타원_6662" data-name="타원 6662" cx="14.527" cy="14.752" rx="14.527" ry="14.752" transform="translate(904.192 1977.932)" fill="#f8f8f8" opacity="0.143"/>
              <ellipse id="타원_6663" data-name="타원 6663" cx="14.459" cy="14.671" rx="14.459" ry="14.671" transform="translate(904.34 1977.883)" fill="#f6f6f6" opacity="0.19"/>
              <ellipse id="타원_6664" data-name="타원 6664" cx="14.391" cy="14.591" rx="14.391" ry="14.591" transform="translate(904.488 1977.834)" fill="#f4f4f4" opacity="0.238"/>
              <ellipse id="타원_6665" data-name="타원 6665" cx="14.323" cy="14.511" rx="14.323" ry="14.511" transform="translate(904.635 1977.785)" fill="#f2f2f2" opacity="0.286"/>
              <ellipse id="타원_6666" data-name="타원 6666" cx="14.256" cy="14.43" rx="14.256" ry="14.43" transform="translate(904.783 1977.736)" fill="#f0f0f0" opacity="0.333"/>
              <ellipse id="타원_6667" data-name="타원 6667" cx="14.188" cy="14.35" rx="14.188" ry="14.35" transform="translate(904.931 1977.687)" fill="#ededed" opacity="0.381"/>
              <ellipse id="타원_6668" data-name="타원 6668" cx="14.12" cy="14.269" rx="14.12" ry="14.269" transform="translate(905.079 1977.638)" fill="#ebebeb" opacity="0.429"/>
              <path id="패스_31614" data-name="패스 31614" d="M933.331,1991.778a14.053,14.053,0,1,1-14.052-14.189A14.122,14.122,0,0,1,933.331,1991.778Z" fill="#e9e9e9" opacity="0.476"/>
              <path id="패스_31615" data-name="패스 31615" d="M933.343,1991.649a13.985,13.985,0,1,1-13.984-14.109A14.047,14.047,0,0,1,933.343,1991.649Z" fill="#e7e7e7" opacity="0.524"/>
              <path id="패스_31616" data-name="패스 31616" d="M933.355,1991.52a13.916,13.916,0,1,1-13.916-14.029A13.973,13.973,0,0,1,933.355,1991.52Z" fill="#e5e5e5" opacity="0.571"/>
              <path id="패스_31617" data-name="패스 31617" d="M933.367,1991.39a13.849,13.849,0,1,1-13.848-13.948A13.9,13.9,0,0,1,933.367,1991.39Z" fill="#e3e3e3" opacity="0.619"/>
              <path id="패스_31618" data-name="패스 31618" d="M933.379,1991.261a13.781,13.781,0,1,1-13.78-13.868A13.825,13.825,0,0,1,933.379,1991.261Z" fill="#e0e0e0" opacity="0.667"/>
              <path id="패스_31619" data-name="패스 31619" d="M933.391,1991.132a13.713,13.713,0,1,1-13.712-13.788A13.75,13.75,0,0,1,933.391,1991.132Z" fill="#dedede" opacity="0.714"/>
              <path id="패스_31620" data-name="패스 31620" d="M933.4,1991a13.645,13.645,0,1,1-13.644-13.707A13.676,13.676,0,0,1,933.4,1991Z" fill="#dcdcdc" opacity="0.762"/>
              <path id="패스_31621" data-name="패스 31621" d="M933.415,1990.873a13.577,13.577,0,1,1-13.577-13.627A13.6,13.6,0,0,1,933.415,1990.873Z" fill="#dadada" opacity="0.81"/>
              <path id="패스_31622" data-name="패스 31622" d="M933.427,1990.743a13.509,13.509,0,1,1-13.509-13.546A13.528,13.528,0,0,1,933.427,1990.743Z" fill="#d8d8d8" opacity="0.857"/>
              <path id="패스_31623" data-name="패스 31623" d="M933.44,1990.614A13.441,13.441,0,1,1,920,1977.148,13.454,13.454,0,0,1,933.44,1990.614Z" fill="#d5d5d5" opacity="0.905"/>
              <path id="패스_31624" data-name="패스 31624" d="M933.452,1990.485a13.373,13.373,0,1,1-13.374-13.386A13.38,13.38,0,0,1,933.452,1990.485Z" fill="#d3d3d3" opacity="0.952"/>
              <path id="패스_31625" data-name="패스 31625" d="M933.464,1990.355a13.305,13.305,0,1,1-13.306-13.3A13.306,13.306,0,0,1,933.464,1990.355Z" fill="#d1d1d1"/>
            </g>
            <g id="그룹_13003" data-name="그룹 13003" style="mix-blend-mode: multiply;isolation: isolate">
              <path id="패스_31626" data-name="패스 31626" d="M933.21,1991.645a13.566,13.566,0,1,1-13.566-13.566A13.566,13.566,0,0,1,933.21,1991.645Z" fill="#fff" opacity="0"/>
              <path id="패스_31627" data-name="패스 31627" d="M933.21,1991.593a13.55,13.55,0,1,1-13.55-13.55A13.55,13.55,0,0,1,933.21,1991.593Z" fill="#fdfdfd" opacity="0.048"/>
              <path id="패스_31628" data-name="패스 31628" d="M933.209,1991.54a13.533,13.533,0,1,1-13.533-13.534A13.533,13.533,0,0,1,933.209,1991.54Z" fill="#fbfbfb" opacity="0.095"/>
              <path id="패스_31629" data-name="패스 31629" d="M933.209,1991.487a13.517,13.517,0,1,1-13.518-13.517A13.517,13.517,0,0,1,933.209,1991.487Z" fill="#f8f8f8" opacity="0.143"/>
              <path id="패스_31630" data-name="패스 31630" d="M933.209,1991.434a13.5,13.5,0,1,1-13.5-13.5A13.5,13.5,0,0,1,933.209,1991.434Z" fill="#f6f6f6" opacity="0.19"/>
              <path id="패스_31631" data-name="패스 31631" d="M933.208,1991.382a13.485,13.485,0,1,1-13.485-13.486A13.485,13.485,0,0,1,933.208,1991.382Z" fill="#f4f4f4" opacity="0.238"/>
              <path id="패스_31632" data-name="패스 31632" d="M933.208,1991.329a13.469,13.469,0,1,1-13.469-13.469A13.469,13.469,0,0,1,933.208,1991.329Z" fill="#f2f2f2" opacity="0.286"/>
              <path id="패스_31633" data-name="패스 31633" d="M933.208,1991.276a13.453,13.453,0,1,1-13.453-13.453A13.453,13.453,0,0,1,933.208,1991.276Z" fill="#f0f0f0" opacity="0.333"/>
              <path id="패스_31634" data-name="패스 31634" d="M933.207,1991.224a13.436,13.436,0,1,1-13.437-13.437A13.436,13.436,0,0,1,933.207,1991.224Z" fill="#ededed" opacity="0.381"/>
              <path id="패스_31635" data-name="패스 31635" d="M933.207,1991.171a13.421,13.421,0,1,1-13.421-13.421A13.42,13.42,0,0,1,933.207,1991.171Z" fill="#ebebeb" opacity="0.429"/>
              <path id="패스_31636" data-name="패스 31636" d="M933.207,1991.118a13.4,13.4,0,1,1-13.4-13.4A13.405,13.405,0,0,1,933.207,1991.118Z" fill="#e9e9e9" opacity="0.476"/>
              <path id="패스_31637" data-name="패스 31637" d="M933.206,1991.066a13.388,13.388,0,1,1-13.388-13.389A13.388,13.388,0,0,1,933.206,1991.066Z" fill="#e7e7e7" opacity="0.524"/>
              <path id="패스_31638" data-name="패스 31638" d="M933.206,1991.013a13.372,13.372,0,1,1-13.373-13.373A13.372,13.372,0,0,1,933.206,1991.013Z" fill="#e5e5e5" opacity="0.571"/>
              <path id="패스_31639" data-name="패스 31639" d="M933.206,1990.96a13.357,13.357,0,1,1-13.357-13.356A13.356,13.356,0,0,1,933.206,1990.96Z" fill="#e3e3e3" opacity="0.619"/>
              <path id="패스_31640" data-name="패스 31640" d="M933.205,1990.907a13.34,13.34,0,1,1-13.34-13.34A13.339,13.339,0,0,1,933.205,1990.907Z" fill="#e0e0e0" opacity="0.667"/>
              <path id="패스_31641" data-name="패스 31641" d="M933.205,1990.855a13.324,13.324,0,1,1-13.324-13.324A13.324,13.324,0,0,1,933.205,1990.855Z" fill="#dedede" opacity="0.714"/>
              <path id="패스_31642" data-name="패스 31642" d="M933.205,1990.8a13.308,13.308,0,1,1-13.308-13.308A13.308,13.308,0,0,1,933.205,1990.8Z" fill="#dcdcdc" opacity="0.762"/>
              <path id="패스_31643" data-name="패스 31643" d="M933.2,1990.749a13.292,13.292,0,1,1-13.292-13.292A13.292,13.292,0,0,1,933.2,1990.749Z" fill="#dadada" opacity="0.81"/>
              <path id="패스_31644" data-name="패스 31644" d="M933.2,1990.7a13.275,13.275,0,1,1-13.276-13.276A13.276,13.276,0,0,1,933.2,1990.7Z" fill="#d8d8d8" opacity="0.857"/>
              <path id="패스_31645" data-name="패스 31645" d="M933.2,1990.644a13.259,13.259,0,1,1-13.26-13.26A13.259,13.259,0,0,1,933.2,1990.644Z" fill="#d5d5d5" opacity="0.905"/>
              <path id="패스_31646" data-name="패스 31646" d="M933.2,1990.591a13.243,13.243,0,1,1-13.243-13.243A13.243,13.243,0,0,1,933.2,1990.591Z" fill="#d3d3d3" opacity="0.952"/>
              <path id="패스_31647" data-name="패스 31647" d="M933.2,1990.539a13.228,13.228,0,1,1-13.227-13.228A13.227,13.227,0,0,1,933.2,1990.539Z" fill="#d1d1d1"/>
            </g>
          </g>
          <path id="패스_31648" data-name="패스 31648" d="M933.985,1990.095a13.566,13.566,0,1,1-13.566-13.566A13.566,13.566,0,0,1,933.985,1990.095Z" fill="url(#linear-gradient)"/>
        </g>
        <path id="패스_31649" data-name="패스 31649" d="M929.679,1990.095a9.26,9.26,0,1,1-9.26-9.26A9.26,9.26,0,0,1,929.679,1990.095Z" fill="none"/>
      </g>
      <g id="그룹_13011" data-name="그룹 13011" transform="translate(-98.942 100.35)">
        <g id="그룹_13010" data-name="그룹 13010">
          <g id="그룹_13009" data-name="그룹 13009">
            <g id="그룹_13007" data-name="그룹 13007">
              <path id="패스_31650" data-name="패스 31650" d="M926.764,1996.692a.318.318,0,0,1-.317-.318v-1.763a3.932,3.932,0,0,0-3.928-3.928h-4.2a3.932,3.932,0,0,0-3.927,3.928v1.763a.318.318,0,0,1-.636,0v-1.763a4.568,4.568,0,0,1,4.563-4.563h4.2a4.568,4.568,0,0,1,4.563,4.563v1.763A.318.318,0,0,1,926.764,1996.692Z" fill="#383838"/>
            </g>
            <g id="그룹_13008" data-name="그룹 13008">
              <path id="패스_31651" data-name="패스 31651" d="M920.419,1989.094a3.755,3.755,0,1,1,3.756-3.756A3.76,3.76,0,0,1,920.419,1989.094Zm0-6.876a3.12,3.12,0,1,0,3.12,3.12A3.124,3.124,0,0,0,920.419,1982.218Z" fill="#383838"/>
            </g>
          </g>
        </g>
      </g>
    </g>
  </g>
</svg>
