<svg xmlns="http://www.w3.org/2000/svg" xmlns:xlink="http://www.w3.org/1999/xlink" width="30.237" height="31.536" viewBox="0 0 30.237 31.536">
  <defs>
    <linearGradient id="linear-gradient" x1="0.188" y1="0.881" x2="0.805" y2="0.127" gradientUnits="objectBoundingBox">
      <stop offset="0" stop-color="#f2f2f2"/>
      <stop offset="1" stop-color="#eff6fa"/>
    </linearGradient>
  </defs>
  <g id="그룹_13034" data-name="그룹 13034" transform="translate(-725.818 -1976.694)">
    <g id="그룹_13023" data-name="그룹 13023">
      <g id="그룹_13022" data-name="그룹 13022">
        <g id="그룹_13021" data-name="그룹 13021">
          <g id="그룹_13019" data-name="그룹 13019" style="mix-blend-mode: multiply;isolation: isolate">
            <ellipse id="타원_6679" data-name="타원 6679" cx="14.731" cy="14.993" rx="14.731" ry="14.993" transform="translate(725.818 1978.245)" fill="#fff" opacity="0"/>
            <ellipse id="타원_6680" data-name="타원 6680" cx="14.663" cy="14.912" rx="14.663" ry="14.912" transform="translate(725.966 1978.196)" fill="#fdfdfd" opacity="0.048"/>
            <ellipse id="타원_6681" data-name="타원 6681" cx="14.595" cy="14.832" rx="14.595" ry="14.832" transform="translate(726.114 1978.147)" fill="#fbfbfb" opacity="0.095"/>
            <ellipse id="타원_6682" data-name="타원 6682" cx="14.527" cy="14.752" rx="14.527" ry="14.752" transform="translate(726.262 1978.098)" fill="#f8f8f8" opacity="0.143"/>
            <ellipse id="타원_6683" data-name="타원 6683" cx="14.459" cy="14.671" rx="14.459" ry="14.671" transform="translate(726.41 1978.049)" fill="#f6f6f6" opacity="0.19"/>
            <ellipse id="타원_6684" data-name="타원 6684" cx="14.391" cy="14.591" rx="14.391" ry="14.591" transform="translate(726.557 1978)" fill="#f4f4f4" opacity="0.238"/>
            <ellipse id="타원_6685" data-name="타원 6685" cx="14.323" cy="14.511" rx="14.323" ry="14.511" transform="translate(726.705 1977.951)" fill="#f2f2f2" opacity="0.286"/>
            <ellipse id="타원_6686" data-name="타원 6686" cx="14.256" cy="14.43" rx="14.256" ry="14.43" transform="translate(726.853 1977.902)" fill="#f0f0f0" opacity="0.333"/>
            <ellipse id="타원_6687" data-name="타원 6687" cx="14.188" cy="14.35" rx="14.188" ry="14.35" transform="translate(727.001 1977.853)" fill="#ededed" opacity="0.381"/>
            <ellipse id="타원_6688" data-name="타원 6688" cx="14.12" cy="14.269" rx="14.12" ry="14.269" transform="translate(727.149 1977.804)" fill="#ebebeb" opacity="0.429"/>
            <path id="패스_31690" data-name="패스 31690" d="M755.4,1991.944a14.053,14.053,0,1,1-14.052-14.189A14.122,14.122,0,0,1,755.4,1991.944Z" fill="#e9e9e9" opacity="0.476"/>
            <path id="패스_31691" data-name="패스 31691" d="M755.413,1991.814a13.985,13.985,0,1,1-13.984-14.108A14.047,14.047,0,0,1,755.413,1991.814Z" fill="#e7e7e7" opacity="0.524"/>
            <path id="패스_31692" data-name="패스 31692" d="M755.425,1991.685a13.916,13.916,0,1,1-13.916-14.028A13.972,13.972,0,0,1,755.425,1991.685Z" fill="#e5e5e5" opacity="0.571"/>
            <path id="패스_31693" data-name="패스 31693" d="M755.437,1991.556a13.849,13.849,0,1,1-13.848-13.948A13.9,13.9,0,0,1,755.437,1991.556Z" fill="#e3e3e3" opacity="0.619"/>
            <path id="패스_31694" data-name="패스 31694" d="M755.449,1991.426a13.781,13.781,0,1,1-13.781-13.867A13.825,13.825,0,0,1,755.449,1991.426Z" fill="#e0e0e0" opacity="0.667"/>
            <path id="패스_31695" data-name="패스 31695" d="M755.461,1991.3a13.713,13.713,0,1,1-13.713-13.787A13.75,13.75,0,0,1,755.461,1991.3Z" fill="#dedede" opacity="0.714"/>
            <path id="패스_31696" data-name="패스 31696" d="M755.473,1991.168a13.645,13.645,0,1,1-13.645-13.707A13.676,13.676,0,0,1,755.473,1991.168Z" fill="#dcdcdc" opacity="0.762"/>
            <path id="패스_31697" data-name="패스 31697" d="M755.485,1991.038a13.577,13.577,0,1,1-13.577-13.626A13.6,13.6,0,0,1,755.485,1991.038Z" fill="#dadada" opacity="0.81"/>
            <path id="패스_31698" data-name="패스 31698" d="M755.5,1990.909a13.509,13.509,0,1,1-13.509-13.546A13.528,13.528,0,0,1,755.5,1990.909Z" fill="#d8d8d8" opacity="0.857"/>
            <path id="패스_31699" data-name="패스 31699" d="M755.509,1990.779a13.441,13.441,0,1,1-13.441-13.465A13.452,13.452,0,0,1,755.509,1990.779Z" fill="#d5d5d5" opacity="0.905"/>
            <path id="패스_31700" data-name="패스 31700" d="M755.522,1990.65a13.373,13.373,0,1,1-13.374-13.385A13.38,13.38,0,0,1,755.522,1990.65Z" fill="#d3d3d3" opacity="0.952"/>
            <path id="패스_31701" data-name="패스 31701" d="M755.534,1990.521a13.306,13.306,0,1,1-13.306-13.305A13.305,13.305,0,0,1,755.534,1990.521Z" fill="#d1d1d1"/>
          </g>
          <g id="그룹_13020" data-name="그룹 13020" style="mix-blend-mode: multiply;isolation: isolate">
            <path id="패스_31702" data-name="패스 31702" d="M755.28,1991.811a13.566,13.566,0,1,1-13.566-13.566A13.566,13.566,0,0,1,755.28,1991.811Z" fill="#fff" opacity="0"/>
            <path id="패스_31703" data-name="패스 31703" d="M755.28,1991.758a13.55,13.55,0,1,1-13.55-13.55A13.55,13.55,0,0,1,755.28,1991.758Z" fill="#fdfdfd" opacity="0.048"/>
            <path id="패스_31704" data-name="패스 31704" d="M755.279,1991.7a13.534,13.534,0,1,1-13.533-13.533A13.533,13.533,0,0,1,755.279,1991.7Z" fill="#fbfbfb" opacity="0.095"/>
            <path id="패스_31705" data-name="패스 31705" d="M755.279,1991.653a13.517,13.517,0,1,1-13.518-13.518A13.518,13.518,0,0,1,755.279,1991.653Z" fill="#f8f8f8" opacity="0.143"/>
            <path id="패스_31706" data-name="패스 31706" d="M755.279,1991.6a13.5,13.5,0,1,1-13.5-13.5A13.5,13.5,0,0,1,755.279,1991.6Z" fill="#f6f6f6" opacity="0.19"/>
            <path id="패스_31707" data-name="패스 31707" d="M755.278,1991.547a13.485,13.485,0,1,1-13.485-13.485A13.484,13.484,0,0,1,755.278,1991.547Z" fill="#f4f4f4" opacity="0.238"/>
            <path id="패스_31708" data-name="패스 31708" d="M755.278,1991.494a13.469,13.469,0,1,1-13.469-13.469A13.469,13.469,0,0,1,755.278,1991.494Z" fill="#f2f2f2" opacity="0.286"/>
            <path id="패스_31709" data-name="패스 31709" d="M755.278,1991.442a13.453,13.453,0,1,1-13.454-13.453A13.454,13.454,0,0,1,755.278,1991.442Z" fill="#f0f0f0" opacity="0.333"/>
            <path id="패스_31710" data-name="패스 31710" d="M755.277,1991.389a13.437,13.437,0,1,1-13.437-13.437A13.437,13.437,0,0,1,755.277,1991.389Z" fill="#ededed" opacity="0.381"/>
            <path id="패스_31711" data-name="패스 31711" d="M755.277,1991.336a13.421,13.421,0,1,1-13.421-13.421A13.421,13.421,0,0,1,755.277,1991.336Z" fill="#ebebeb" opacity="0.429"/>
            <path id="패스_31712" data-name="패스 31712" d="M755.277,1991.284a13.4,13.4,0,1,1-13.4-13.405A13.4,13.4,0,0,1,755.277,1991.284Z" fill="#e9e9e9" opacity="0.476"/>
            <path id="패스_31713" data-name="패스 31713" d="M755.276,1991.231a13.388,13.388,0,1,1-13.388-13.389A13.388,13.388,0,0,1,755.276,1991.231Z" fill="#e7e7e7" opacity="0.524"/>
            <path id="패스_31714" data-name="패스 31714" d="M755.276,1991.178a13.372,13.372,0,1,1-13.373-13.372A13.372,13.372,0,0,1,755.276,1991.178Z" fill="#e5e5e5" opacity="0.571"/>
            <path id="패스_31715" data-name="패스 31715" d="M755.276,1991.126a13.357,13.357,0,1,1-13.357-13.357A13.357,13.357,0,0,1,755.276,1991.126Z" fill="#e3e3e3" opacity="0.619"/>
            <path id="패스_31716" data-name="패스 31716" d="M755.275,1991.073a13.34,13.34,0,1,1-13.34-13.34A13.34,13.34,0,0,1,755.275,1991.073Z" fill="#e0e0e0" opacity="0.667"/>
            <path id="패스_31717" data-name="패스 31717" d="M755.275,1991.02a13.324,13.324,0,1,1-13.324-13.324A13.324,13.324,0,0,1,755.275,1991.02Z" fill="#dedede" opacity="0.714"/>
            <path id="패스_31718" data-name="패스 31718" d="M755.275,1990.967a13.308,13.308,0,1,1-13.308-13.308A13.308,13.308,0,0,1,755.275,1990.967Z" fill="#dcdcdc" opacity="0.762"/>
            <path id="패스_31719" data-name="패스 31719" d="M755.274,1990.915a13.292,13.292,0,1,1-13.292-13.292A13.292,13.292,0,0,1,755.274,1990.915Z" fill="#dadada" opacity="0.81"/>
            <path id="패스_31720" data-name="패스 31720" d="M755.274,1990.862A13.275,13.275,0,1,1,742,1977.586,13.275,13.275,0,0,1,755.274,1990.862Z" fill="#d8d8d8" opacity="0.857"/>
            <path id="패스_31721" data-name="패스 31721" d="M755.274,1990.809a13.259,13.259,0,1,1-13.26-13.259A13.26,13.26,0,0,1,755.274,1990.809Z" fill="#d5d5d5" opacity="0.905"/>
            <path id="패스_31722" data-name="패스 31722" d="M755.273,1990.757a13.243,13.243,0,1,1-13.243-13.244A13.243,13.243,0,0,1,755.273,1990.757Z" fill="#d3d3d3" opacity="0.952"/>
            <path id="패스_31723" data-name="패스 31723" d="M755.273,1990.7a13.228,13.228,0,1,1-13.228-13.228A13.227,13.227,0,0,1,755.273,1990.7Z" fill="#d1d1d1"/>
          </g>
        </g>
        <path id="패스_31724" data-name="패스 31724" d="M756.055,1990.26a13.566,13.566,0,1,1-13.566-13.566A13.566,13.566,0,0,1,756.055,1990.26Z" fill="url(#linear-gradient)"/>
      </g>
      <path id="패스_31725" data-name="패스 31725" d="M751.749,1990.26a9.26,9.26,0,1,1-9.26-9.26A9.26,9.26,0,0,1,751.749,1990.26Z" fill="none"/>
    </g>
    <g id="그룹_13033" data-name="그룹 13033">
      <g id="그룹_13028" data-name="그룹 13028">
        <g id="그룹_13025" data-name="그룹 13025">
          <g id="그룹_13024" data-name="그룹 13024">
            <path id="패스_31726" data-name="패스 31726" d="M739.407,1997.885a1.051,1.051,0,0,1-.748-.309l-3.213-3.213a1.06,1.06,0,0,1,0-1.5l5.891-5.891a2.355,2.355,0,0,1,1.571-.609l2.548.117a1.16,1.16,0,0,1,1.084,1.083l.117,2.549a2.355,2.355,0,0,1-.609,1.571l-5.892,5.891A1.049,1.049,0,0,1,739.407,1997.885Zm3.435-11.027a1.9,1.9,0,0,0-1.156.466l-5.891,5.891a.566.566,0,0,0,0,.8l3.214,3.214a.6.6,0,0,0,.8,0l5.892-5.891a1.879,1.879,0,0,0,.464-1.2l-.117-2.549a.657.657,0,0,0-.612-.612Z" fill="#231f20"/>
          </g>
        </g>
        <g id="그룹_13027" data-name="그룹 13027">
          <g id="그룹_13026" data-name="그룹 13026">
            <path id="패스_31727" data-name="패스 31727" d="M744.3,1989.776a1.059,1.059,0,0,1-.748-1.808,1.087,1.087,0,0,1,1.5,0,1.059,1.059,0,0,1-.749,1.808Zm0-1.622a.563.563,0,0,0-.4.962.58.58,0,0,0,.8,0,.563.563,0,0,0-.4-.962Z" fill="#231f20"/>
          </g>
        </g>
      </g>
      <g id="그룹_13030" data-name="그룹 13030">
        <g id="그룹_13029" data-name="그룹 13029">
          <path id="패스_31728" data-name="패스 31728" d="M744.861,1988.309a.263.263,0,0,1-.118-.03.249.249,0,0,1-.119-.149.247.247,0,0,1,.02-.188l3.152-5.757a.251.251,0,0,1,.336-.1.248.248,0,0,1,.1.336l-3.153,5.757A.249.249,0,0,1,744.861,1988.309Z" fill="#231f20"/>
        </g>
      </g>
      <g id="그룹_13032" data-name="그룹 13032">
        <g id="그룹_13031" data-name="그룹 13031">
          <path id="패스_31729" data-name="패스 31729" d="M745,1988.309a.248.248,0,0,1-.079-.483l4.935-1.644a.244.244,0,0,1,.189.013.247.247,0,0,1,.124.143.249.249,0,0,1-.156.313Z" fill="#231f20"/>
        </g>
      </g>
    </g>
  </g>
</svg>
